<svg xmlns="http://www.w3.org/2000/svg" width="14.92" height="17.052" viewBox="0 0 14.92 17.052">
  <path id="Icon_awesome-trash-alt" data-name="Icon awesome-trash-alt" d="M1.066,15.453a1.6,1.6,0,0,0,1.6,1.6h9.592a1.6,1.6,0,0,0,1.6-1.6V4.263H1.066Zm9.059-8.526a.533.533,0,1,1,1.066,0v7.46a.533.533,0,1,1-1.066,0Zm-3.2,0a.533.533,0,1,1,1.066,0v7.46a.533.533,0,1,1-1.066,0Zm-3.2,0a.533.533,0,1,1,1.066,0v7.46a.533.533,0,1,1-1.066,0ZM14.387,1.066h-4L10.078.443A.8.8,0,0,0,9.362,0H5.555a.79.79,0,0,0-.713.443l-.313.623h-4A.533.533,0,0,0,0,1.6V2.664A.533.533,0,0,0,.533,3.2H14.387a.533.533,0,0,0,.533-.533V1.6A.533.533,0,0,0,14.387,1.066Z"/>
</svg>
